<svg width="41" height="35" viewBox="0 0 41 35" fill="none" xmlns="http://www.w3.org/2000/svg">
<g filter="url(#filter0_d)">
<path d="M37.145 4.07567C35.9202 4.60402 34.5873 4.98426 33.2144 5.13236C34.6398 4.28555 35.7072 2.94774 36.2164 1.36992C34.8788 2.16559 33.4136 2.72353 31.8855 3.01899C31.2469 2.33625 30.4745 1.79235 29.6165 1.42118C28.7585 1.05001 27.8332 0.859524 26.8983 0.861589C23.1159 0.861589 20.0739 3.92758 20.0739 7.69002C20.0739 8.21836 20.1379 8.74671 20.242 9.25504C14.5783 8.95884 9.52705 6.25309 6.16887 2.1104C5.55697 3.15554 5.23632 4.34555 5.24026 5.55663C5.24026 7.92617 6.44505 10.0155 8.28224 11.2443C7.19955 11.2017 6.14222 10.9041 5.19624 10.3758V10.4598C5.19624 13.778 7.54176 16.5278 10.6678 17.1602C10.0808 17.3126 9.47704 17.3906 8.87062 17.3923C8.42633 17.3923 8.00606 17.3483 7.58178 17.2882C8.44634 19.994 10.964 21.9593 13.9619 22.0233C11.6164 23.8605 8.67849 24.9412 5.48843 24.9412C4.91605 24.9412 4.38771 24.9212 3.83936 24.8572C6.86532 26.7984 10.4556 27.9191 14.3222 27.9191C26.8743 27.9191 33.7428 17.5204 33.7428 8.49454C33.7428 8.19835 33.7428 7.90216 33.7227 7.60597C35.0516 6.63333 36.2164 5.42855 37.145 4.07567Z" fill="#FA4A0C"/>
</g>
<defs>
<filter id="filter0_d" x="-0.160645" y="0.861572" width="41.3056" height="35.0576" filterUnits="userSpaceOnUse" color-interpolation-filters="sRGB">
<feFlood flood-opacity="0" result="BackgroundImageFix"/>
<feColorMatrix in="SourceAlpha" type="matrix" values="0 0 0 0 0 0 0 0 0 0 0 0 0 0 0 0 0 0 127 0"/>
<feOffset dy="4"/>
<feGaussianBlur stdDeviation="2"/>
<feColorMatrix type="matrix" values="0 0 0 0 0 0 0 0 0 0 0 0 0 0 0 0 0 0 0.25 0"/>
<feBlend mode="normal" in2="BackgroundImageFix" result="effect1_dropShadow"/>
<feBlend mode="normal" in="SourceGraphic" in2="effect1_dropShadow" result="shape"/>
</filter>
</defs>
</svg>
